<svg xmlns="http://www.w3.org/2000/svg" viewBox="0 0 24 24" width="24" height="24">
  <!-- Simplified Document -->
  <path d="M6 3 H14 L18 7 V19 C18 19.5523 17.5523 20 17 20 H7 C6.44772 20 6 19.5523 6 19 V4 C6 3.44772 6.44772 3 7 3 H14" fill="none" stroke="currentColor" stroke-width="1.5" stroke-linejoin="round"/>

  <!-- Folded Corner -->
  <path d="M14 3 V7 H18" fill="none" stroke="currentColor" stroke-width="1.5" stroke-linejoin="round"/>

  <!-- Simple Circular Arrow -->
  <path d="M12 14 C13.3333 14 14.6667 15.3333 14.6667 16.6667 C14.6667 18 13.3333 19.3333 12 19.3333 C10.6667 19.3333 9.33333 18 9.33333 16.6667 C9.33333 16 9.66667 15.3333 10 15" fill="none" stroke="#2196F3" stroke-width="1.5" stroke-linecap="round" stroke-linejoin="round"/>

  <!-- Arrow Head -->
  <path d="M10 15 L8.66667 16.3333 L10 17.6667" fill="none" stroke="#2196F3" stroke-width="1.5" stroke-linecap="round" stroke-linejoin="round"/>
</svg>